<svg width="683" height="549" viewBox="0 0 683 549" fill="none" xmlns="http://www.w3.org/2000/svg">
<path d="M513.097 533.279C508.374 540.633 497.626 540.633 492.903 533.279L433.466 440.735C428.336 432.748 434.071 422.25 443.563 422.25H562.437C571.929 422.25 577.664 432.748 572.534 440.735L513.097 533.279Z" fill="#6366F1"/>
<rect width="683" height="450" rx="100" fill="#6366F1"/>
<path d="M109.387 272H75.8716V177.455H109.664C119.174 177.455 127.361 179.347 134.224 183.133C141.087 186.888 146.365 192.289 150.058 199.337C153.782 206.384 155.644 214.817 155.644 224.635C155.644 234.483 153.782 242.947 150.058 250.026C146.365 257.104 141.056 262.536 134.132 266.322C127.238 270.107 118.99 272 109.387 272ZM95.861 254.873H108.556C114.465 254.873 119.436 253.826 123.468 251.734C127.53 249.61 130.577 246.332 132.608 241.901C134.67 237.438 135.701 231.683 135.701 224.635C135.701 217.649 134.67 211.94 132.608 207.508C130.577 203.076 127.545 199.814 123.514 197.721C119.482 195.628 114.512 194.582 108.602 194.582H95.861V254.873ZM190.303 273.339C185.778 273.339 181.747 272.554 178.207 270.984C174.668 269.384 171.867 267.03 169.805 263.921C167.774 260.782 166.759 256.873 166.759 252.195C166.759 248.256 167.482 244.947 168.928 242.27C170.375 239.592 172.344 237.438 174.837 235.807C177.33 234.176 180.162 232.945 183.332 232.114C186.532 231.283 189.887 230.698 193.396 230.359C197.52 229.929 200.844 229.528 203.367 229.159C205.891 228.759 207.722 228.174 208.861 227.405C210 226.635 210.569 225.497 210.569 223.989V223.712C210.569 220.788 209.646 218.526 207.799 216.925C205.983 215.325 203.398 214.525 200.043 214.525C196.504 214.525 193.688 215.31 191.595 216.879C189.502 218.418 188.117 220.357 187.44 222.696L169.251 221.219C170.175 216.91 171.991 213.186 174.699 210.047C177.407 206.877 180.9 204.446 185.178 202.753C189.487 201.029 194.473 200.168 200.136 200.168C204.075 200.168 207.845 200.629 211.446 201.553C215.078 202.476 218.294 203.907 221.094 205.846C223.926 207.785 226.157 210.278 227.788 213.325C229.42 216.341 230.235 219.957 230.235 224.173V272H211.585V262.167H211.031C209.892 264.383 208.368 266.337 206.46 268.03C204.552 269.692 202.259 271 199.582 271.954C196.904 272.877 193.811 273.339 190.303 273.339ZM195.935 259.766C198.828 259.766 201.382 259.197 203.598 258.058C205.814 256.889 207.553 255.319 208.815 253.349C210.076 251.38 210.707 249.148 210.707 246.656V239.131C210.092 239.531 209.246 239.9 208.168 240.239C207.122 240.546 205.937 240.839 204.614 241.116C203.29 241.362 201.967 241.593 200.643 241.808C199.32 241.993 198.12 242.162 197.043 242.316C194.734 242.655 192.719 243.193 190.995 243.932C189.272 244.67 187.933 245.671 186.979 246.933C186.025 248.164 185.548 249.702 185.548 251.549C185.548 254.227 186.517 256.273 188.456 257.689C190.426 259.074 192.919 259.766 195.935 259.766ZM245.493 272V201.091H265.159V272H245.493ZM255.372 191.95C252.448 191.95 249.94 190.981 247.847 189.042C245.785 187.072 244.754 184.718 244.754 181.979C244.754 179.27 245.785 176.947 247.847 175.008C249.94 173.038 252.448 172.053 255.372 172.053C258.296 172.053 260.788 173.038 262.85 175.008C264.943 176.947 265.99 179.27 265.99 181.979C265.99 184.718 264.943 187.072 262.85 189.042C260.788 190.981 258.296 191.95 255.372 191.95ZM300.579 177.455V272H280.912V177.455H300.579ZM328.474 298.591C325.981 298.591 323.642 298.391 321.457 297.991C319.302 297.621 317.517 297.144 316.102 296.56L320.533 281.879C322.842 282.587 324.919 282.972 326.766 283.033C328.643 283.095 330.259 282.664 331.613 281.741C332.998 280.817 334.121 279.248 334.983 277.032L336.137 274.031L310.7 201.091H331.382L346.062 253.165H346.801L361.62 201.091H382.44L354.88 279.663C353.557 283.48 351.756 286.804 349.479 289.635C347.232 292.497 344.385 294.698 340.938 296.237C337.491 297.806 333.336 298.591 328.474 298.591ZM399.556 273.2C396.509 273.2 393.893 272.123 391.708 269.969C389.554 267.784 388.476 265.168 388.476 262.121C388.476 259.105 389.554 256.519 391.708 254.365C393.893 252.211 396.509 251.134 399.556 251.134C402.51 251.134 405.096 252.211 407.312 254.365C409.528 256.519 410.635 259.105 410.635 262.121C410.635 264.152 410.112 266.014 409.066 267.707C408.05 269.369 406.711 270.707 405.05 271.723C403.388 272.708 401.556 273.2 399.556 273.2ZM446.448 177.455V272H426.782V177.455H446.448ZM494.24 273.385C487.069 273.385 480.867 271.862 475.635 268.815C470.434 265.737 466.418 261.459 463.586 255.981C460.755 250.472 459.339 244.086 459.339 236.822C459.339 229.498 460.755 223.096 463.586 217.618C466.418 212.109 470.434 207.831 475.635 204.784C480.867 201.706 487.069 200.168 494.24 200.168C501.411 200.168 507.597 201.706 512.798 204.784C518.03 207.831 522.062 212.109 524.893 217.618C527.725 223.096 529.14 229.498 529.14 236.822C529.14 244.086 527.725 250.472 524.893 255.981C522.062 261.459 518.03 265.737 512.798 268.815C507.597 271.862 501.411 273.385 494.24 273.385ZM494.332 258.151C497.595 258.151 500.318 257.227 502.503 255.381C504.689 253.503 506.335 250.949 507.443 247.717C508.582 244.486 509.151 240.808 509.151 236.684C509.151 232.56 508.582 228.882 507.443 225.651C506.335 222.419 504.689 219.865 502.503 217.987C500.318 216.11 497.595 215.171 494.332 215.171C491.039 215.171 488.269 216.11 486.023 217.987C483.807 219.865 482.129 222.419 480.991 225.651C479.883 228.882 479.329 232.56 479.329 236.684C479.329 240.808 479.883 244.486 480.991 247.717C482.129 250.949 483.807 253.503 486.023 255.381C488.269 257.227 491.039 258.151 494.332 258.151ZM573.874 300.068C567.503 300.068 562.041 299.191 557.486 297.437C552.961 295.713 549.361 293.359 546.683 290.374C544.006 287.388 542.267 284.034 541.466 280.31L559.655 277.863C560.209 279.279 561.086 280.602 562.287 281.833C563.487 283.064 565.072 284.049 567.042 284.788C569.042 285.557 571.474 285.942 574.336 285.942C578.614 285.942 582.138 284.895 584.907 282.803C587.708 280.741 589.108 277.278 589.108 272.415V259.443H588.278C587.416 261.413 586.123 263.275 584.4 265.029C582.676 266.783 580.46 268.214 577.752 269.322C575.044 270.43 571.812 270.984 568.057 270.984C562.733 270.984 557.886 269.753 553.515 267.291C549.176 264.798 545.714 260.997 543.128 255.888C540.574 250.749 539.297 244.255 539.297 236.407C539.297 228.374 540.605 221.665 543.221 216.279C545.837 210.893 549.314 206.862 553.654 204.184C558.024 201.506 562.81 200.168 568.011 200.168C571.981 200.168 575.305 200.845 577.983 202.199C580.66 203.522 582.815 205.184 584.446 207.185C586.108 209.154 587.385 211.093 588.278 213.001H589.016V201.091H608.544V272.692C608.544 278.725 607.067 283.772 604.112 287.835C601.157 291.897 597.064 294.944 591.832 296.975C586.631 299.037 580.645 300.068 573.874 300.068ZM574.29 256.212C577.46 256.212 580.137 255.427 582.322 253.857C584.538 252.257 586.231 249.979 587.4 247.025C588.601 244.04 589.201 240.469 589.201 236.315C589.201 232.16 588.616 228.559 587.447 225.512C586.277 222.434 584.584 220.049 582.368 218.357C580.153 216.664 577.46 215.817 574.29 215.817C571.058 215.817 568.334 216.695 566.118 218.449C563.903 220.172 562.225 222.573 561.086 225.651C559.948 228.728 559.378 232.283 559.378 236.315C559.378 240.408 559.948 243.947 561.086 246.933C562.256 249.887 563.933 252.18 566.118 253.811C568.334 255.411 571.058 256.212 574.29 256.212Z" fill="white"/>
</svg>
